<mxfile host="app.diagrams.net" modified="2023-02-16T08:07:51.862Z" agent="5.0 (Windows NT 10.0; Win64; x64) AppleWebKit/537.36 (KHTML, like Gecko) Chrome/107.0.0.0 Safari/537.36" etag="J_C1wUWxbj49dbC01H2n" version="20.8.20" type="github">
  <diagram name="Страница 1" id="QiAMAgcQXoghS_cRUXvQ">
    <mxGraphModel dx="2261" dy="764" grid="1" gridSize="10" guides="1" tooltips="1" connect="1" arrows="1" fold="1" page="1" pageScale="1" pageWidth="827" pageHeight="1169" math="0" shadow="0">
      <root>
        <mxCell id="0" />
        <mxCell id="1" parent="0" />
        <mxCell id="UF_Up9nPMrGkN38h5PYS-5" value="&lt;table style=&quot;border-spacing: 0px; border-collapse: collapse; tab-size: 2; color: rgb(36, 41, 47); font-family: -apple-system, BlinkMacSystemFont, &amp;quot;Segoe UI&amp;quot;, &amp;quot;Noto Sans&amp;quot;, Helvetica, Arial, sans-serif, &amp;quot;Apple Color Emoji&amp;quot;, &amp;quot;Segoe UI Emoji&amp;quot;; text-align: start; background-color: rgb(255, 255, 255); font-size: 10px;&quot; data-tagsearch-path=&quot;Jenkinsfile&quot; data-tagsearch-lang=&quot;Groovy&quot; data-paste-markdown-skip=&quot;&quot; data-tab-size=&quot;2&quot; class=&quot;highlight tab-size js-file-line-container js-code-nav-container js-tagsearch-file&quot; data-hpc=&quot;&quot;&gt;&lt;tbody style=&quot;box-sizing: border-box;&quot;&gt;&lt;tr style=&quot;box-sizing: border-box; background-color: transparent;&quot;&gt;&lt;td style=&quot;box-sizing: border-box; padding: 0px 10px; position: relative; line-height: 20px; vertical-align: top; overflow: visible; font-family: ui-monospace, SFMono-Regular, &amp;quot;SF Mono&amp;quot;, Menlo, Consolas, &amp;quot;Liberation Mono&amp;quot;, monospace; color: var(--color-fg-default); overflow-wrap: anywhere;&quot; class=&quot;blob-code blob-code-inner js-file-line&quot; id=&quot;LC6&quot;&gt;&lt;font style=&quot;font-size: 10px;&quot;&gt;properties([&lt;/font&gt;&lt;/td&gt;&lt;/tr&gt;&lt;tr style=&quot;box-sizing: border-box;&quot;&gt;&lt;td style=&quot;box-sizing: border-box; padding: 0px 10px; position: relative; width: 50px; min-width: 50px; font-family: ui-monospace, SFMono-Regular, &amp;quot;SF Mono&amp;quot;, Menlo, Consolas, &amp;quot;Liberation Mono&amp;quot;, monospace; line-height: 20px; color: var(--color-fg-subtle); text-align: right; vertical-align: top; cursor: pointer; user-select: none;&quot; data-line-number=&quot;7&quot; class=&quot;blob-num js-line-number js-code-nav-line-number js-blob-rnum&quot; id=&quot;L7&quot;&gt;&lt;/td&gt;&lt;td style=&quot;box-sizing: border-box; padding: 0px 10px; position: relative; line-height: 20px; vertical-align: top; overflow: visible; font-family: ui-monospace, SFMono-Regular, &amp;quot;SF Mono&amp;quot;, Menlo, Consolas, &amp;quot;Liberation Mono&amp;quot;, monospace; color: var(--color-fg-default); overflow-wrap: anywhere;&quot; class=&quot;blob-code blob-code-inner js-file-line&quot; id=&quot;LC7&quot;&gt;&lt;font style=&quot;font-size: 10px;&quot;&gt;        buildDiscarder (logRotator (artifactDaysToKeepStr: &lt;span style=&quot;box-sizing: border-box; color: var(--color-prettylights-syntax-string);&quot; class=&quot;pl-s&quot;&gt;&lt;span style=&quot;box-sizing: border-box; color: var(--color-prettylights-syntax-string);&quot; class=&quot;pl-pds&quot;&gt;&#39;&lt;/span&gt;&lt;span style=&quot;box-sizing: border-box; color: var(--color-prettylights-syntax-string);&quot; class=&quot;pl-pds&quot;&gt;&#39;&lt;/span&gt;&lt;/span&gt;,&lt;br&gt;&lt;span style=&quot;box-sizing: border-box; color: var(--color-prettylights-syntax-constant);&quot; class=&quot;pl-c1&quot;&gt;artifactNumToKeepStr&lt;/span&gt;: &lt;span style=&quot;box-sizing: border-box; color: var(--color-prettylights-syntax-string);&quot; class=&quot;pl-s&quot;&gt;&lt;span style=&quot;box-sizing: border-box; color: var(--color-prettylights-syntax-string);&quot; class=&quot;pl-pds&quot;&gt;&#39;&lt;/span&gt;10&lt;span style=&quot;box-sizing: border-box; color: var(--color-prettylights-syntax-string);&quot; class=&quot;pl-pds&quot;&gt;&#39;&lt;/span&gt;&lt;/span&gt;, &lt;span style=&quot;box-sizing: border-box; color: var(--color-prettylights-syntax-constant);&quot; class=&quot;pl-c1&quot;&gt;daysToKeepStr&lt;/span&gt;: &lt;span style=&quot;box-sizing: border-box; color: var(--color-prettylights-syntax-string);&quot; class=&quot;pl-s&quot;&gt;&lt;span style=&quot;box-sizing: border-box; color: var(--color-prettylights-syntax-string);&quot; class=&quot;pl-pds&quot;&gt;&#39;&lt;/span&gt;&lt;span style=&quot;box-sizing: border-box; color: var(--color-prettylights-syntax-string);&quot; class=&quot;pl-pds&quot;&gt;&#39;&lt;/span&gt;&lt;/span&gt;, &lt;span style=&quot;box-sizing: border-box; color: var(--color-prettylights-syntax-constant);&quot; class=&quot;pl-c1&quot;&gt;numToKeepStr&lt;/span&gt;: &lt;span style=&quot;box-sizing: border-box; color: var(--color-prettylights-syntax-string);&quot; class=&quot;pl-s&quot;&gt;&lt;span style=&quot;box-sizing: border-box; color: var(--color-prettylights-syntax-string);&quot; class=&quot;pl-pds&quot;&gt;&#39;&lt;/span&gt;10&lt;span style=&quot;box-sizing: border-box; color: var(--color-prettylights-syntax-string);&quot; class=&quot;pl-pds&quot;&gt;&#39;&lt;/span&gt;&lt;/span&gt;)),&lt;/font&gt;&lt;/td&gt;&lt;/tr&gt;&lt;tr style=&quot;box-sizing: border-box; background-color: transparent;&quot;&gt;&lt;td style=&quot;box-sizing: border-box; padding: 0px 10px; position: relative; width: 50px; min-width: 50px; font-family: ui-monospace, SFMono-Regular, &amp;quot;SF Mono&amp;quot;, Menlo, Consolas, &amp;quot;Liberation Mono&amp;quot;, monospace; line-height: 20px; color: var(--color-fg-subtle); text-align: right; vertical-align: top; cursor: pointer; user-select: none;&quot; data-line-number=&quot;8&quot; class=&quot;blob-num js-line-number js-code-nav-line-number js-blob-rnum&quot; id=&quot;L8&quot;&gt;&lt;/td&gt;&lt;td style=&quot;box-sizing: border-box; padding: 0px 10px; position: relative; line-height: 20px; vertical-align: top; overflow: visible; font-family: ui-monospace, SFMono-Regular, &amp;quot;SF Mono&amp;quot;, Menlo, Consolas, &amp;quot;Liberation Mono&amp;quot;, monospace; color: var(--color-fg-default); overflow-wrap: anywhere;&quot; class=&quot;blob-code blob-code-inner js-file-line&quot; id=&quot;LC8&quot;&gt;&lt;font style=&quot;font-size: 10px;&quot;&gt;        disableConcurrentBuilds (),&lt;/font&gt;&lt;/td&gt;&lt;/tr&gt;&lt;tr style=&quot;box-sizing: border-box;&quot;&gt;&lt;td style=&quot;box-sizing: border-box; padding: 0px 10px; position: relative; width: 50px; min-width: 50px; font-family: ui-monospace, SFMono-Regular, &amp;quot;SF Mono&amp;quot;, Menlo, Consolas, &amp;quot;Liberation Mono&amp;quot;, monospace; line-height: 20px; color: var(--color-fg-subtle); text-align: right; vertical-align: top; cursor: pointer; user-select: none;&quot; data-line-number=&quot;9&quot; class=&quot;blob-num js-line-number js-code-nav-line-number js-blob-rnum&quot; id=&quot;L9&quot;&gt;&lt;/td&gt;&lt;td style=&quot;box-sizing: border-box; padding: 0px 10px; position: relative; line-height: 20px; vertical-align: top; overflow: visible; font-family: ui-monospace, SFMono-Regular, &amp;quot;SF Mono&amp;quot;, Menlo, Consolas, &amp;quot;Liberation Mono&amp;quot;, monospace; color: var(--color-fg-default); overflow-wrap: anywhere;&quot; class=&quot;blob-code blob-code-inner js-file-line&quot; id=&quot;LC9&quot;&gt;&lt;font style=&quot;font-size: 10px;&quot;&gt;        gitLabConnection(&lt;span style=&quot;box-sizing: border-box; color: var(--color-prettylights-syntax-string);&quot; class=&quot;pl-s&quot;&gt;&lt;span style=&quot;box-sizing: border-box; color: var(--color-prettylights-syntax-string);&quot; class=&quot;pl-pds&quot;&gt;&#39;&lt;/span&gt;GitLab&lt;span style=&quot;box-sizing: border-box; color: var(--color-prettylights-syntax-string);&quot; class=&quot;pl-pds&quot;&gt;&#39;&lt;/span&gt;&lt;/span&gt;),&lt;/font&gt;&lt;/td&gt;&lt;/tr&gt;&lt;tr style=&quot;box-sizing: border-box; background-color: transparent;&quot;&gt;&lt;td style=&quot;box-sizing: border-box; padding: 0px 10px; position: relative; width: 50px; min-width: 50px; font-family: ui-monospace, SFMono-Regular, &amp;quot;SF Mono&amp;quot;, Menlo, Consolas, &amp;quot;Liberation Mono&amp;quot;, monospace; line-height: 20px; color: var(--color-fg-subtle); text-align: right; vertical-align: top; cursor: pointer; user-select: none;&quot; data-line-number=&quot;10&quot; class=&quot;blob-num js-line-number js-code-nav-line-number js-blob-rnum&quot; id=&quot;L10&quot;&gt;&lt;/td&gt;&lt;td style=&quot;box-sizing: border-box; padding: 0px 10px; position: relative; line-height: 20px; vertical-align: top; overflow: visible; font-family: ui-monospace, SFMono-Regular, &amp;quot;SF Mono&amp;quot;, Menlo, Consolas, &amp;quot;Liberation Mono&amp;quot;, monospace; color: var(--color-fg-default); overflow-wrap: anywhere;&quot; class=&quot;blob-code blob-code-inner js-file-line&quot; id=&quot;LC10&quot;&gt;&lt;font style=&quot;font-size: 10px;&quot;&gt;        pipelineTriggers([&lt;/font&gt;&lt;/td&gt;&lt;/tr&gt;&lt;tr style=&quot;box-sizing: border-box;&quot;&gt;&lt;td style=&quot;box-sizing: border-box; padding: 0px 10px; position: relative; width: 50px; min-width: 50px; font-family: ui-monospace, SFMono-Regular, &amp;quot;SF Mono&amp;quot;, Menlo, Consolas, &amp;quot;Liberation Mono&amp;quot;, monospace; line-height: 20px; color: var(--color-fg-subtle); text-align: right; vertical-align: top; cursor: pointer; user-select: none;&quot; data-line-number=&quot;11&quot; class=&quot;blob-num js-line-number js-code-nav-line-number js-blob-rnum&quot; id=&quot;L11&quot;&gt;&lt;/td&gt;&lt;td style=&quot;box-sizing: border-box; padding: 0px 10px; position: relative; line-height: 20px; vertical-align: top; overflow: visible; font-family: ui-monospace, SFMono-Regular, &amp;quot;SF Mono&amp;quot;, Menlo, Consolas, &amp;quot;Liberation Mono&amp;quot;, monospace; color: var(--color-fg-default); overflow-wrap: anywhere;&quot; class=&quot;blob-code blob-code-inner js-file-line&quot; id=&quot;LC11&quot;&gt;&lt;font style=&quot;font-size: 10px;&quot;&gt;                [&lt;/font&gt;&lt;/td&gt;&lt;/tr&gt;&lt;tr style=&quot;box-sizing: border-box; background-color: transparent;&quot;&gt;&lt;td style=&quot;box-sizing: border-box; padding: 0px 10px; position: relative; width: 50px; min-width: 50px; font-family: ui-monospace, SFMono-Regular, &amp;quot;SF Mono&amp;quot;, Menlo, Consolas, &amp;quot;Liberation Mono&amp;quot;, monospace; line-height: 20px; color: var(--color-fg-subtle); text-align: right; vertical-align: top; cursor: pointer; user-select: none;&quot; data-line-number=&quot;12&quot; class=&quot;blob-num js-line-number js-code-nav-line-number js-blob-rnum&quot; id=&quot;L12&quot;&gt;&lt;/td&gt;&lt;td style=&quot;box-sizing: border-box; padding: 0px 10px; position: relative; line-height: 20px; vertical-align: top; overflow: visible; font-family: ui-monospace, SFMono-Regular, &amp;quot;SF Mono&amp;quot;, Menlo, Consolas, &amp;quot;Liberation Mono&amp;quot;, monospace; color: var(--color-fg-default); overflow-wrap: anywhere;&quot; class=&quot;blob-code blob-code-inner js-file-line&quot; id=&quot;LC12&quot;&gt;&lt;font style=&quot;font-size: 10px;&quot;&gt;                        $&lt;span style=&quot;box-sizing: border-box; color: var(--color-prettylights-syntax-constant);&quot; class=&quot;pl-c1&quot;&gt;class&lt;/span&gt;: &lt;span style=&quot;box-sizing: border-box; color: var(--color-prettylights-syntax-string);&quot; class=&quot;pl-s&quot;&gt;&lt;span style=&quot;box-sizing: border-box; color: var(--color-prettylights-syntax-string);&quot; class=&quot;pl-pds&quot;&gt;&#39;&lt;/span&gt;GitLabPushTrigger&lt;span style=&quot;box-sizing: border-box; color: var(--color-prettylights-syntax-string);&quot; class=&quot;pl-pds&quot;&gt;&#39;&lt;/span&gt;&lt;/span&gt;,&lt;/font&gt;&lt;/td&gt;&lt;/tr&gt;&lt;tr style=&quot;box-sizing: border-box;&quot;&gt;&lt;td style=&quot;box-sizing: border-box; padding: 0px 10px; position: relative; width: 50px; min-width: 50px; font-family: ui-monospace, SFMono-Regular, &amp;quot;SF Mono&amp;quot;, Menlo, Consolas, &amp;quot;Liberation Mono&amp;quot;, monospace; line-height: 20px; color: var(--color-fg-subtle); text-align: right; vertical-align: top; cursor: pointer; user-select: none;&quot; data-line-number=&quot;13&quot; class=&quot;blob-num js-line-number js-code-nav-line-number js-blob-rnum&quot; id=&quot;L13&quot;&gt;&lt;/td&gt;&lt;td style=&quot;box-sizing: border-box; padding: 0px 10px; position: relative; line-height: 20px; vertical-align: top; overflow: visible; font-family: ui-monospace, SFMono-Regular, &amp;quot;SF Mono&amp;quot;, Menlo, Consolas, &amp;quot;Liberation Mono&amp;quot;, monospace; color: var(--color-fg-default); overflow-wrap: anywhere;&quot; class=&quot;blob-code blob-code-inner js-file-line&quot; id=&quot;LC13&quot;&gt;                        &lt;font style=&quot;font-size: 10px;&quot;&gt;&lt;span style=&quot;box-sizing: border-box; color: var(--color-prettylights-syntax-constant);&quot; class=&quot;pl-c1&quot;&gt;triggerOnPush&lt;/span&gt;: &lt;span style=&quot;box-sizing: border-box; color: var(--color-prettylights-syntax-constant);&quot; class=&quot;pl-c1&quot;&gt;true&lt;/span&gt;,&lt;/font&gt;&lt;/td&gt;&lt;/tr&gt;&lt;tr style=&quot;box-sizing: border-box; background-color: transparent;&quot;&gt;&lt;td style=&quot;box-sizing: border-box; padding: 0px 10px; position: relative; width: 50px; min-width: 50px; font-family: ui-monospace, SFMono-Regular, &amp;quot;SF Mono&amp;quot;, Menlo, Consolas, &amp;quot;Liberation Mono&amp;quot;, monospace; line-height: 20px; color: var(--color-fg-subtle); text-align: right; vertical-align: top; cursor: pointer; user-select: none;&quot; data-line-number=&quot;14&quot; class=&quot;blob-num js-line-number js-code-nav-line-number js-blob-rnum&quot; id=&quot;L14&quot;&gt;&lt;/td&gt;&lt;td style=&quot;box-sizing: border-box; padding: 0px 10px; position: relative; line-height: 20px; vertical-align: top; overflow: visible; font-family: ui-monospace, SFMono-Regular, &amp;quot;SF Mono&amp;quot;, Menlo, Consolas, &amp;quot;Liberation Mono&amp;quot;, monospace; color: var(--color-fg-default); overflow-wrap: anywhere;&quot; class=&quot;blob-code blob-code-inner js-file-line&quot; id=&quot;LC14&quot;&gt;                        &lt;font style=&quot;font-size: 10px;&quot;&gt;&lt;span style=&quot;box-sizing: border-box; color: var(--color-prettylights-syntax-constant);&quot; class=&quot;pl-c1&quot;&gt;triggerOnMergeRequest&lt;/span&gt;: &lt;span style=&quot;box-sizing: border-box; color: var(--color-prettylights-syntax-constant);&quot; class=&quot;pl-c1&quot;&gt;false&lt;/span&gt;,&lt;/font&gt;&lt;/td&gt;&lt;/tr&gt;&lt;tr style=&quot;box-sizing: border-box;&quot;&gt;&lt;td style=&quot;box-sizing: border-box; padding: 0px 10px; position: relative; width: 50px; min-width: 50px; font-family: ui-monospace, SFMono-Regular, &amp;quot;SF Mono&amp;quot;, Menlo, Consolas, &amp;quot;Liberation Mono&amp;quot;, monospace; line-height: 20px; color: var(--color-fg-subtle); text-align: right; vertical-align: top; cursor: pointer; user-select: none;&quot; data-line-number=&quot;15&quot; class=&quot;blob-num js-line-number js-code-nav-line-number js-blob-rnum&quot; id=&quot;L15&quot;&gt;&lt;/td&gt;&lt;td style=&quot;box-sizing: border-box; padding: 0px 10px; position: relative; line-height: 20px; vertical-align: top; overflow: visible; font-family: ui-monospace, SFMono-Regular, &amp;quot;SF Mono&amp;quot;, Menlo, Consolas, &amp;quot;Liberation Mono&amp;quot;, monospace; color: var(--color-fg-default); overflow-wrap: anywhere;&quot; class=&quot;blob-code blob-code-inner js-file-line&quot; id=&quot;LC15&quot;&gt;                        &lt;font style=&quot;font-size: 10px;&quot;&gt;&lt;span style=&quot;box-sizing: border-box; color: var(--color-prettylights-syntax-constant);&quot; class=&quot;pl-c1&quot;&gt;triggerOpenMergeRequestOnPush&lt;/span&gt;: &lt;span style=&quot;box-sizing: border-box; color: var(--color-prettylights-syntax-string);&quot; class=&quot;pl-s&quot;&gt;&lt;span style=&quot;box-sizing: border-box; color: var(--color-prettylights-syntax-string);&quot; class=&quot;pl-pds&quot;&gt;&quot;&lt;/span&gt;never&lt;span style=&quot;box-sizing: border-box; color: var(--color-prettylights-syntax-string);&quot; class=&quot;pl-pds&quot;&gt;&quot;&lt;/span&gt;&lt;/span&gt;,&lt;/font&gt;&lt;/td&gt;&lt;/tr&gt;&lt;tr style=&quot;box-sizing: border-box; background-color: transparent;&quot;&gt;&lt;td style=&quot;box-sizing: border-box; padding: 0px 10px; position: relative; width: 50px; min-width: 50px; font-family: ui-monospace, SFMono-Regular, &amp;quot;SF Mono&amp;quot;, Menlo, Consolas, &amp;quot;Liberation Mono&amp;quot;, monospace; line-height: 20px; color: var(--color-fg-subtle); text-align: right; vertical-align: top; cursor: pointer; user-select: none;&quot; data-line-number=&quot;16&quot; class=&quot;blob-num js-line-number js-code-nav-line-number js-blob-rnum&quot; id=&quot;L16&quot;&gt;&lt;/td&gt;&lt;td style=&quot;box-sizing: border-box; padding: 0px 10px; position: relative; line-height: 20px; vertical-align: top; overflow: visible; font-family: ui-monospace, SFMono-Regular, &amp;quot;SF Mono&amp;quot;, Menlo, Consolas, &amp;quot;Liberation Mono&amp;quot;, monospace; color: var(--color-fg-default); overflow-wrap: anywhere;&quot; class=&quot;blob-code blob-code-inner js-file-line&quot; id=&quot;LC16&quot;&gt;                        &lt;font style=&quot;font-size: 10px;&quot;&gt;&lt;span style=&quot;box-sizing: border-box; color: var(--color-prettylights-syntax-constant);&quot; class=&quot;pl-c1&quot;&gt;triggerOnNoteRequest&lt;/span&gt;: &lt;span style=&quot;box-sizing: border-box; color: var(--color-prettylights-syntax-constant);&quot; class=&quot;pl-c1&quot;&gt;true&lt;/span&gt;,&lt;/font&gt;&lt;/td&gt;&lt;/tr&gt;&lt;tr style=&quot;box-sizing: border-box;&quot;&gt;&lt;td style=&quot;box-sizing: border-box; padding: 0px 10px; position: relative; width: 50px; min-width: 50px; font-family: ui-monospace, SFMono-Regular, &amp;quot;SF Mono&amp;quot;, Menlo, Consolas, &amp;quot;Liberation Mono&amp;quot;, monospace; line-height: 20px; color: var(--color-fg-subtle); text-align: right; vertical-align: top; cursor: pointer; user-select: none;&quot; data-line-number=&quot;17&quot; class=&quot;blob-num js-line-number js-code-nav-line-number js-blob-rnum&quot; id=&quot;L17&quot;&gt;&lt;/td&gt;&lt;td style=&quot;box-sizing: border-box; padding: 0px 10px; position: relative; line-height: 20px; vertical-align: top; overflow: visible; font-family: ui-monospace, SFMono-Regular, &amp;quot;SF Mono&amp;quot;, Menlo, Consolas, &amp;quot;Liberation Mono&amp;quot;, monospace; color: var(--color-fg-default); overflow-wrap: anywhere;&quot; class=&quot;blob-code blob-code-inner js-file-line&quot; id=&quot;LC17&quot;&gt;                        &lt;font style=&quot;font-size: 10px;&quot;&gt;&lt;span style=&quot;box-sizing: border-box; color: var(--color-prettylights-syntax-constant);&quot; class=&quot;pl-c1&quot;&gt;noteRegex&lt;/span&gt;: &lt;span style=&quot;box-sizing: border-box; color: var(--color-prettylights-syntax-string);&quot; class=&quot;pl-s&quot;&gt;&lt;span style=&quot;box-sizing: border-box; color: var(--color-prettylights-syntax-string);&quot; class=&quot;pl-pds&quot;&gt;&quot;&lt;/span&gt;Jenkins please retry a build&lt;span style=&quot;box-sizing: border-box; color: var(--color-prettylights-syntax-string);&quot; class=&quot;pl-pds&quot;&gt;&quot;&lt;/span&gt;&lt;/span&gt;,&lt;/font&gt;&lt;/td&gt;&lt;/tr&gt;&lt;tr style=&quot;box-sizing: border-box; background-color: transparent;&quot;&gt;&lt;td style=&quot;box-sizing: border-box; padding: 0px 10px; position: relative; width: 50px; min-width: 50px; font-family: ui-monospace, SFMono-Regular, &amp;quot;SF Mono&amp;quot;, Menlo, Consolas, &amp;quot;Liberation Mono&amp;quot;, monospace; line-height: 20px; color: var(--color-fg-subtle); text-align: right; vertical-align: top; cursor: pointer; user-select: none;&quot; data-line-number=&quot;18&quot; class=&quot;blob-num js-line-number js-code-nav-line-number js-blob-rnum&quot; id=&quot;L18&quot;&gt;&lt;/td&gt;&lt;td style=&quot;box-sizing: border-box; padding: 0px 10px; position: relative; line-height: 20px; vertical-align: top; overflow: visible; font-family: ui-monospace, SFMono-Regular, &amp;quot;SF Mono&amp;quot;, Menlo, Consolas, &amp;quot;Liberation Mono&amp;quot;, monospace; color: var(--color-fg-default); overflow-wrap: anywhere;&quot; class=&quot;blob-code blob-code-inner js-file-line&quot; id=&quot;LC18&quot;&gt;                        &lt;font style=&quot;font-size: 10px;&quot;&gt;&lt;span style=&quot;box-sizing: border-box; color: var(--color-prettylights-syntax-constant);&quot; class=&quot;pl-c1&quot;&gt;skipWorkInProgressMergeRequest&lt;/span&gt;: &lt;span style=&quot;box-sizing: border-box; color: var(--color-prettylights-syntax-constant);&quot; class=&quot;pl-c1&quot;&gt;true&lt;/span&gt;,&lt;/font&gt;&lt;/td&gt;&lt;/tr&gt;&lt;tr style=&quot;box-sizing: border-box;&quot;&gt;&lt;td style=&quot;box-sizing: border-box; padding: 0px 10px; position: relative; width: 50px; min-width: 50px; font-family: ui-monospace, SFMono-Regular, &amp;quot;SF Mono&amp;quot;, Menlo, Consolas, &amp;quot;Liberation Mono&amp;quot;, monospace; line-height: 20px; color: var(--color-fg-subtle); text-align: right; vertical-align: top; cursor: pointer; user-select: none;&quot; data-line-number=&quot;19&quot; class=&quot;blob-num js-line-number js-code-nav-line-number js-blob-rnum&quot; id=&quot;L19&quot;&gt;&lt;/td&gt;&lt;td style=&quot;box-sizing: border-box; padding: 0px 10px; position: relative; line-height: 20px; vertical-align: top; overflow: visible; font-family: ui-monospace, SFMono-Regular, &amp;quot;SF Mono&amp;quot;, Menlo, Consolas, &amp;quot;Liberation Mono&amp;quot;, monospace; color: var(--color-fg-default); overflow-wrap: anywhere;&quot; class=&quot;blob-code blob-code-inner js-file-line&quot; id=&quot;LC19&quot;&gt;                        &lt;font style=&quot;font-size: 10px;&quot;&gt;&lt;span style=&quot;box-sizing: border-box; color: var(--color-prettylights-syntax-constant);&quot; class=&quot;pl-c1&quot;&gt;ciSkip&lt;/span&gt;: &lt;span style=&quot;box-sizing: border-box; color: var(--color-prettylights-syntax-constant);&quot; class=&quot;pl-c1&quot;&gt;true&lt;/span&gt;,&lt;/font&gt;&lt;/td&gt;&lt;/tr&gt;&lt;tr style=&quot;box-sizing: border-box; background-color: transparent;&quot;&gt;&lt;td style=&quot;box-sizing: border-box; padding: 0px 10px; position: relative; width: 50px; min-width: 50px; font-family: ui-monospace, SFMono-Regular, &amp;quot;SF Mono&amp;quot;, Menlo, Consolas, &amp;quot;Liberation Mono&amp;quot;, monospace; line-height: 20px; color: var(--color-fg-subtle); text-align: right; vertical-align: top; cursor: pointer; user-select: none;&quot; data-line-number=&quot;20&quot; class=&quot;blob-num js-line-number js-code-nav-line-number js-blob-rnum&quot; id=&quot;L20&quot;&gt;&lt;/td&gt;&lt;td style=&quot;box-sizing: border-box; padding: 0px 10px; position: relative; line-height: 20px; vertical-align: top; overflow: visible; font-family: ui-monospace, SFMono-Regular, &amp;quot;SF Mono&amp;quot;, Menlo, Consolas, &amp;quot;Liberation Mono&amp;quot;, monospace; color: var(--color-fg-default); overflow-wrap: anywhere;&quot; class=&quot;blob-code blob-code-inner js-file-line&quot; id=&quot;LC20&quot;&gt;                        &lt;font style=&quot;font-size: 10px;&quot;&gt;&lt;span style=&quot;box-sizing: border-box; color: var(--color-prettylights-syntax-constant);&quot; class=&quot;pl-c1&quot;&gt;setBuildDescription&lt;/span&gt;: &lt;span style=&quot;box-sizing: border-box; color: var(--color-prettylights-syntax-constant);&quot; class=&quot;pl-c1&quot;&gt;true&lt;/span&gt;,&lt;/font&gt;&lt;/td&gt;&lt;/tr&gt;&lt;tr style=&quot;box-sizing: border-box;&quot;&gt;&lt;td style=&quot;box-sizing: border-box; padding: 0px 10px; position: relative; width: 50px; min-width: 50px; font-family: ui-monospace, SFMono-Regular, &amp;quot;SF Mono&amp;quot;, Menlo, Consolas, &amp;quot;Liberation Mono&amp;quot;, monospace; line-height: 20px; color: var(--color-fg-subtle); text-align: right; vertical-align: top; cursor: pointer; user-select: none;&quot; data-line-number=&quot;21&quot; class=&quot;blob-num js-line-number js-code-nav-line-number js-blob-rnum&quot; id=&quot;L21&quot;&gt;&lt;/td&gt;&lt;td style=&quot;box-sizing: border-box; padding: 0px 10px; position: relative; line-height: 20px; vertical-align: top; overflow: visible; font-family: ui-monospace, SFMono-Regular, &amp;quot;SF Mono&amp;quot;, Menlo, Consolas, &amp;quot;Liberation Mono&amp;quot;, monospace; color: var(--color-fg-default); overflow-wrap: anywhere;&quot; class=&quot;blob-code blob-code-inner js-file-line&quot; id=&quot;LC21&quot;&gt;                        &lt;font style=&quot;font-size: 10px;&quot;&gt;&lt;span style=&quot;box-sizing: border-box; color: var(--color-prettylights-syntax-constant);&quot; class=&quot;pl-c1&quot;&gt;addNoteOnMergeRequest&lt;/span&gt;: &lt;span style=&quot;box-sizing: border-box; color: var(--color-prettylights-syntax-constant);&quot; class=&quot;pl-c1&quot;&gt;true&lt;/span&gt;,&lt;/font&gt;&lt;/td&gt;&lt;/tr&gt;&lt;tr style=&quot;box-sizing: border-box; background-color: transparent;&quot;&gt;&lt;td style=&quot;box-sizing: border-box; padding: 0px 10px; position: relative; width: 50px; min-width: 50px; font-family: ui-monospace, SFMono-Regular, &amp;quot;SF Mono&amp;quot;, Menlo, Consolas, &amp;quot;Liberation Mono&amp;quot;, monospace; line-height: 20px; color: var(--color-fg-subtle); text-align: right; vertical-align: top; cursor: pointer; user-select: none;&quot; data-line-number=&quot;22&quot; class=&quot;blob-num js-line-number js-code-nav-line-number js-blob-rnum&quot; id=&quot;L22&quot;&gt;&lt;/td&gt;&lt;td style=&quot;box-sizing: border-box; padding: 0px 10px; position: relative; line-height: 20px; vertical-align: top; overflow: visible; font-family: ui-monospace, SFMono-Regular, &amp;quot;SF Mono&amp;quot;, Menlo, Consolas, &amp;quot;Liberation Mono&amp;quot;, monospace; color: var(--color-fg-default); overflow-wrap: anywhere;&quot; class=&quot;blob-code blob-code-inner js-file-line&quot; id=&quot;LC22&quot;&gt;                        &lt;font style=&quot;font-size: 10px;&quot;&gt;&lt;span style=&quot;box-sizing: border-box; color: var(--color-prettylights-syntax-constant);&quot; class=&quot;pl-c1&quot;&gt;addCiMessage&lt;/span&gt;: &lt;span style=&quot;box-sizing: border-box; color: var(--color-prettylights-syntax-constant);&quot; class=&quot;pl-c1&quot;&gt;true&lt;/span&gt;,&lt;/font&gt;&lt;/td&gt;&lt;/tr&gt;&lt;tr style=&quot;box-sizing: border-box;&quot;&gt;&lt;td style=&quot;box-sizing: border-box; padding: 0px 10px; position: relative; width: 50px; min-width: 50px; font-family: ui-monospace, SFMono-Regular, &amp;quot;SF Mono&amp;quot;, Menlo, Consolas, &amp;quot;Liberation Mono&amp;quot;, monospace; line-height: 20px; color: var(--color-fg-subtle); text-align: right; vertical-align: top; cursor: pointer; user-select: none;&quot; data-line-number=&quot;23&quot; class=&quot;blob-num js-line-number js-code-nav-line-number js-blob-rnum&quot; id=&quot;L23&quot;&gt;&lt;/td&gt;&lt;td style=&quot;box-sizing: border-box; padding: 0px 10px; position: relative; line-height: 20px; vertical-align: top; overflow: visible; font-family: ui-monospace, SFMono-Regular, &amp;quot;SF Mono&amp;quot;, Menlo, Consolas, &amp;quot;Liberation Mono&amp;quot;, monospace; color: var(--color-fg-default); overflow-wrap: anywhere;&quot; class=&quot;blob-code blob-code-inner js-file-line&quot; id=&quot;LC23&quot;&gt;                        &lt;font style=&quot;font-size: 10px;&quot;&gt;&lt;span style=&quot;box-sizing: border-box; color: var(--color-prettylights-syntax-constant);&quot; class=&quot;pl-c1&quot;&gt;addVoteOnMergeRequest&lt;/span&gt;: &lt;span style=&quot;box-sizing: border-box; color: var(--color-prettylights-syntax-constant);&quot; class=&quot;pl-c1&quot;&gt;true&lt;/span&gt;,&lt;/font&gt;&lt;/td&gt;&lt;/tr&gt;&lt;tr style=&quot;box-sizing: border-box; background-color: transparent;&quot;&gt;&lt;td style=&quot;box-sizing: border-box; padding: 0px 10px; position: relative; width: 50px; min-width: 50px; font-family: ui-monospace, SFMono-Regular, &amp;quot;SF Mono&amp;quot;, Menlo, Consolas, &amp;quot;Liberation Mono&amp;quot;, monospace; line-height: 20px; color: var(--color-fg-subtle); text-align: right; vertical-align: top; cursor: pointer; user-select: none;&quot; data-line-number=&quot;24&quot; class=&quot;blob-num js-line-number js-code-nav-line-number js-blob-rnum&quot; id=&quot;L24&quot;&gt;&lt;/td&gt;&lt;td style=&quot;box-sizing: border-box; padding: 0px 10px; position: relative; line-height: 20px; vertical-align: top; overflow: visible; font-family: ui-monospace, SFMono-Regular, &amp;quot;SF Mono&amp;quot;, Menlo, Consolas, &amp;quot;Liberation Mono&amp;quot;, monospace; color: var(--color-fg-default); overflow-wrap: anywhere;&quot; class=&quot;blob-code blob-code-inner js-file-line&quot; id=&quot;LC24&quot;&gt;                        &lt;font style=&quot;font-size: 10px;&quot;&gt;&lt;span style=&quot;box-sizing: border-box; color: var(--color-prettylights-syntax-constant);&quot; class=&quot;pl-c1&quot;&gt;acceptMergeRequestOnSuccess&lt;/span&gt;: &lt;span style=&quot;box-sizing: border-box; color: var(--color-prettylights-syntax-constant);&quot; class=&quot;pl-c1&quot;&gt;false&lt;/span&gt;,&lt;/font&gt;&lt;/td&gt;&lt;/tr&gt;&lt;tr style=&quot;box-sizing: border-box;&quot;&gt;&lt;td style=&quot;box-sizing: border-box; padding: 0px 10px; position: relative; width: 50px; min-width: 50px; font-family: ui-monospace, SFMono-Regular, &amp;quot;SF Mono&amp;quot;, Menlo, Consolas, &amp;quot;Liberation Mono&amp;quot;, monospace; line-height: 20px; color: var(--color-fg-subtle); text-align: right; vertical-align: top; cursor: pointer; user-select: none;&quot; data-line-number=&quot;25&quot; class=&quot;blob-num js-line-number js-code-nav-line-number js-blob-rnum&quot; id=&quot;L25&quot;&gt;&lt;/td&gt;&lt;td style=&quot;box-sizing: border-box; padding: 0px 10px; position: relative; line-height: 20px; vertical-align: top; overflow: visible; font-family: ui-monospace, SFMono-Regular, &amp;quot;SF Mono&amp;quot;, Menlo, Consolas, &amp;quot;Liberation Mono&amp;quot;, monospace; color: var(--color-fg-default); overflow-wrap: anywhere;&quot; class=&quot;blob-code blob-code-inner js-file-line&quot; id=&quot;LC25&quot;&gt;                        &lt;font style=&quot;font-size: 10px;&quot;&gt;&lt;span style=&quot;box-sizing: border-box; color: var(--color-prettylights-syntax-constant);&quot; class=&quot;pl-c1&quot;&gt;branchFilterType&lt;/span&gt;: &lt;span style=&quot;box-sizing: border-box; color: var(--color-prettylights-syntax-string);&quot; class=&quot;pl-s&quot;&gt;&lt;span style=&quot;box-sizing: border-box; color: var(--color-prettylights-syntax-string);&quot; class=&quot;pl-pds&quot;&gt;&quot;&lt;/span&gt;NameBasedFilter&lt;span style=&quot;box-sizing: border-box; color: var(--color-prettylights-syntax-string);&quot; class=&quot;pl-pds&quot;&gt;&quot;&lt;/span&gt;&lt;/span&gt;,&lt;/font&gt;&lt;/td&gt;&lt;/tr&gt;&lt;tr style=&quot;box-sizing: border-box; background-color: transparent;&quot;&gt;&lt;td style=&quot;box-sizing: border-box; padding: 0px 10px; position: relative; width: 50px; min-width: 50px; font-family: ui-monospace, SFMono-Regular, &amp;quot;SF Mono&amp;quot;, Menlo, Consolas, &amp;quot;Liberation Mono&amp;quot;, monospace; line-height: 20px; color: var(--color-fg-subtle); text-align: right; vertical-align: top; cursor: pointer; user-select: none;&quot; data-line-number=&quot;26&quot; class=&quot;blob-num js-line-number js-code-nav-line-number js-blob-rnum&quot; id=&quot;L26&quot;&gt;&lt;/td&gt;&lt;td style=&quot;box-sizing: border-box; padding: 0px 10px; position: relative; line-height: 20px; vertical-align: top; overflow: visible; font-family: ui-monospace, SFMono-Regular, &amp;quot;SF Mono&amp;quot;, Menlo, Consolas, &amp;quot;Liberation Mono&amp;quot;, monospace; color: var(--color-fg-default); overflow-wrap: anywhere;&quot; class=&quot;blob-code blob-code-inner js-file-line&quot; id=&quot;LC26&quot;&gt;                        &lt;font style=&quot;font-size: 10px;&quot;&gt;&lt;span style=&quot;box-sizing: border-box; color: var(--color-prettylights-syntax-constant);&quot; class=&quot;pl-c1&quot;&gt;includeBranchesSpec&lt;/span&gt;: &lt;span style=&quot;box-sizing: border-box; color: var(--color-prettylights-syntax-string);&quot; class=&quot;pl-s&quot;&gt;&lt;span style=&quot;box-sizing: border-box; color: var(--color-prettylights-syntax-string);&quot; class=&quot;pl-pds&quot;&gt;&quot;&lt;/span&gt;release/qat&lt;span style=&quot;box-sizing: border-box; color: var(--color-prettylights-syntax-string);&quot; class=&quot;pl-pds&quot;&gt;&quot;&lt;/span&gt;&lt;/span&gt;,&lt;/font&gt;&lt;/td&gt;&lt;/tr&gt;&lt;tr style=&quot;box-sizing: border-box;&quot;&gt;&lt;td style=&quot;box-sizing: border-box; padding: 0px 10px; position: relative; width: 50px; min-width: 50px; font-family: ui-monospace, SFMono-Regular, &amp;quot;SF Mono&amp;quot;, Menlo, Consolas, &amp;quot;Liberation Mono&amp;quot;, monospace; line-height: 20px; color: var(--color-fg-subtle); text-align: right; vertical-align: top; cursor: pointer; user-select: none;&quot; data-line-number=&quot;27&quot; class=&quot;blob-num js-line-number js-code-nav-line-number js-blob-rnum&quot; id=&quot;L27&quot;&gt;&lt;/td&gt;&lt;td style=&quot;box-sizing: border-box; padding: 0px 10px; position: relative; line-height: 20px; vertical-align: top; overflow: visible; font-family: ui-monospace, SFMono-Regular, &amp;quot;SF Mono&amp;quot;, Menlo, Consolas, &amp;quot;Liberation Mono&amp;quot;, monospace; color: var(--color-fg-default); overflow-wrap: anywhere;&quot; class=&quot;blob-code blob-code-inner js-file-line&quot; id=&quot;LC27&quot;&gt;                        &lt;font style=&quot;font-size: 10px;&quot;&gt;&lt;span style=&quot;box-sizing: border-box; color: var(--color-prettylights-syntax-constant);&quot; class=&quot;pl-c1&quot;&gt;excludeBranchesSpec&lt;/span&gt;: &lt;span style=&quot;box-sizing: border-box; color: var(--color-prettylights-syntax-string);&quot; class=&quot;pl-s&quot;&gt;&lt;span style=&quot;box-sizing: border-box; color: var(--color-prettylights-syntax-string);&quot; class=&quot;pl-pds&quot;&gt;&quot;&lt;/span&gt;&lt;span style=&quot;box-sizing: border-box; color: var(--color-prettylights-syntax-string);&quot; class=&quot;pl-pds&quot;&gt;&quot;&lt;/span&gt;&lt;/span&gt;,&lt;/font&gt;&lt;/td&gt;&lt;/tr&gt;&lt;tr style=&quot;box-sizing: border-box; background-color: transparent;&quot;&gt;&lt;td style=&quot;box-sizing: border-box; padding: 0px 10px; position: relative; width: 50px; min-width: 50px; font-family: ui-monospace, SFMono-Regular, &amp;quot;SF Mono&amp;quot;, Menlo, Consolas, &amp;quot;Liberation Mono&amp;quot;, monospace; line-height: 20px; color: var(--color-fg-subtle); text-align: right; vertical-align: top; cursor: pointer; user-select: none;&quot; data-line-number=&quot;28&quot; class=&quot;blob-num js-line-number js-code-nav-line-number js-blob-rnum&quot; id=&quot;L28&quot;&gt;&lt;/td&gt;&lt;td style=&quot;box-sizing: border-box; padding: 0px 10px; position: relative; line-height: 20px; vertical-align: top; overflow: visible; font-family: ui-monospace, SFMono-Regular, &amp;quot;SF Mono&amp;quot;, Menlo, Consolas, &amp;quot;Liberation Mono&amp;quot;, monospace; color: var(--color-fg-default); overflow-wrap: anywhere;&quot; class=&quot;blob-code blob-code-inner js-file-line&quot; id=&quot;LC28&quot;&gt;&lt;font style=&quot;font-size: 10px;&quot;&gt;                ]&lt;/font&gt;&lt;/td&gt;&lt;/tr&gt;&lt;tr style=&quot;box-sizing: border-box;&quot;&gt;&lt;td style=&quot;box-sizing: border-box; padding: 0px 10px; position: relative; width: 50px; min-width: 50px; font-family: ui-monospace, SFMono-Regular, &amp;quot;SF Mono&amp;quot;, Menlo, Consolas, &amp;quot;Liberation Mono&amp;quot;, monospace; line-height: 20px; color: var(--color-fg-subtle); text-align: right; vertical-align: top; cursor: pointer; user-select: none;&quot; data-line-number=&quot;29&quot; class=&quot;blob-num js-line-number js-code-nav-line-number js-blob-rnum&quot; id=&quot;L29&quot;&gt;&lt;/td&gt;&lt;td style=&quot;box-sizing: border-box; padding: 0px 10px; position: relative; line-height: 20px; vertical-align: top; overflow: visible; font-family: ui-monospace, SFMono-Regular, &amp;quot;SF Mono&amp;quot;, Menlo, Consolas, &amp;quot;Liberation Mono&amp;quot;, monospace; color: var(--color-fg-default); overflow-wrap: anywhere;&quot; class=&quot;blob-code blob-code-inner js-file-line&quot; id=&quot;LC29&quot;&gt;&lt;font style=&quot;font-size: 10px;&quot;&gt;        ])&lt;/font&gt;&lt;/td&gt;&lt;/tr&gt;&lt;tr style=&quot;box-sizing: border-box; background-color: transparent;&quot;&gt;&lt;td style=&quot;box-sizing: border-box; padding: 0px 10px; position: relative; width: 50px; min-width: 50px; font-family: ui-monospace, SFMono-Regular, &amp;quot;SF Mono&amp;quot;, Menlo, Consolas, &amp;quot;Liberation Mono&amp;quot;, monospace; line-height: 20px; color: var(--color-fg-subtle); text-align: right; vertical-align: top; cursor: pointer; user-select: none;&quot; data-line-number=&quot;30&quot; class=&quot;blob-num js-line-number js-code-nav-line-number js-blob-rnum&quot; id=&quot;L30&quot;&gt;&lt;/td&gt;&lt;td style=&quot;box-sizing: border-box; padding: 0px 10px; position: relative; line-height: 20px; vertical-align: top; overflow: visible; font-family: ui-monospace, SFMono-Regular, &amp;quot;SF Mono&amp;quot;, Menlo, Consolas, &amp;quot;Liberation Mono&amp;quot;, monospace; color: var(--color-fg-default); overflow-wrap: anywhere;&quot; class=&quot;blob-code blob-code-inner js-file-line&quot; id=&quot;LC30&quot;&gt;&lt;font style=&quot;font-size: 10px;&quot;&gt;])&lt;/font&gt;&lt;/td&gt;&lt;/tr&gt;&lt;/tbody&gt;&lt;/table&gt;" style="rounded=0;html=1;" vertex="1" parent="1">
          <mxGeometry x="-800" y="20" width="490" height="530" as="geometry" />
        </mxCell>
        <mxCell id="UF_Up9nPMrGkN38h5PYS-6" style="edgeStyle=orthogonalEdgeStyle;rounded=0;orthogonalLoop=1;jettySize=auto;html=1;exitX=0.5;exitY=1;exitDx=0;exitDy=0;fontSize=10;" edge="1" parent="1" source="UF_Up9nPMrGkN38h5PYS-5" target="UF_Up9nPMrGkN38h5PYS-5">
          <mxGeometry relative="1" as="geometry" />
        </mxCell>
      </root>
    </mxGraphModel>
  </diagram>
</mxfile>
